<?xml version="1.0" encoding="UTF-8"?>
<svg width="88px" height="88px" viewBox="0 0 88 88" version="1.1" xmlns="http://www.w3.org/2000/svg" xmlns:xlink="http://www.w3.org/1999/xlink">
    <!-- Generator: Sketch 41.2 (35397) - http://www.bohemiancoding.com/sketch -->
    <title>cog</title>
    <desc>Created with Sketch.</desc>
    <defs></defs>
    <g id="Page-1" stroke="none" stroke-width="1" fill="none" fill-rule="evenodd">
        <g id="Desktop-Screen-1" transform="translate(-945.000000, -162.000000)" fill="#FFFFFF">
            <g id="Group" transform="translate(619.304688, 138.500000)">
                <g id="Group-2" transform="translate(281.000000, 0.000000)">
                    <g id="cog" transform="translate(45.000000, 23.000000)">
                        <path d="M43.6953631,29.6815482 C51.9122036,29.6815482 58.5138312,36.2831757 58.5138312,44.5000163 C58.5138312,52.717783 51.9122036,59.3184844 43.6953631,59.3184844 C35.4785225,59.3184844 28.876895,52.717783 28.876895,44.5000163 C28.876895,36.2831757 35.4785225,29.6815482 43.6953631,29.6815482 L43.6953631,29.6815482 Z M43.6953631,24.1246226 C32.4750043,24.1246226 23.3199694,33.2796575 23.3199694,44.5000163 C23.3199694,55.7203751 32.4750043,64.8754099 43.6953631,64.8754099 C54.9147957,64.8754099 64.0707567,55.7203751 64.0707567,44.5000163 C64.0707567,33.2796575 54.9147957,24.1246226 43.6953631,24.1246226 L43.6953631,24.1246226 Z M40.0778045,6.52769177 L47.3129216,6.52769177 L49.5412487,14.3712922 C49.7959412,15.2928156 50.5590923,16.0559668 51.4806158,16.309733 C53.8219337,16.9552625 56.027107,17.8758599 58.1091018,19.059485 C58.9296744,19.5327498 59.9984564,19.5438637 60.8292168,19.0881958 L68.0069123,15.0946186 L73.1007607,20.188467 L69.1062574,27.3374517 C68.6431803,28.1635813 68.6431803,29.2314372 69.1062574,30.0575668 C70.2908087,32.1386354 71.2401168,34.3743718 71.8847202,36.7147636 C72.1347818,37.629804 72.8849668,38.3911028 73.7953764,38.6541306 L81.6676876,40.8824577 L81.6676876,48.088864 L73.7953764,50.3468281 C72.8905237,50.604299 72.1431172,51.3526316 71.8847202,52.2565582 C71.2401168,54.59695 70.2908087,56.8326863 69.1062574,58.913755 C68.6431803,59.7398846 68.6431803,60.8077404 69.1062574,61.63387 L73.1007607,68.8115655 L68.0069123,73.8767031 L60.8292168,69.883126 C59.9984564,69.4274581 58.9296744,69.4385719 58.1091018,69.9109106 C56.027107,71.0954619 53.8219337,72.0456962 51.4806158,72.6893734 C50.5665015,72.939435 49.8052027,73.6886938 49.5412487,74.6000296 L47.3129216,82.4723408 L40.0778045,82.4723408 L37.8494774,74.6000296 C37.5855234,73.6886938 36.8251508,72.939435 35.9101104,72.6893734 C33.5697186,72.0456962 31.3636192,71.0954619 29.2816244,69.9109106 C28.4610517,69.4385719 27.3922697,69.4274581 26.5615093,69.883126 L19.3838139,73.8767031 L14.2899654,68.8115655 L18.2844688,61.63387 C18.7475459,60.8077404 18.7475459,59.7398846 18.2844688,58.913755 C17.0999175,56.8326863 16.1506093,54.59695 15.506006,52.2565582 C15.2476089,51.3526316 14.5002025,50.604299 13.5953498,50.3468281 L5.72303858,48.088864 L5.72303858,40.8824577 L13.5953498,38.6541306 C14.5057594,38.3911028 15.2559443,37.629804 15.506006,36.7147636 C16.1506093,34.3743718 17.0999175,32.1386354 18.2844688,30.0575668 C18.7475459,29.2314372 18.7475459,28.1635813 18.2844688,27.3374517 L14.2899654,20.188467 L19.3838139,15.0946186 L26.5615093,19.0881958 C27.3922697,19.5438637 28.4610517,19.5327498 29.2816244,19.059485 C31.3636192,17.8758599 33.5697186,16.9552625 35.9101104,16.309733 C36.8316339,16.0559668 37.594785,15.2928156 37.8494774,14.3712922 L40.0778045,6.52769177 Z M37.9939575,0.970766231 C36.7816216,0.966135459 35.6368949,1.99046207 35.331264,2.96755481 L32.9001091,11.4770601 C31.1922806,12.0383096 29.5529876,12.6995837 27.9794515,13.5025595 L20.2525465,9.21909604 C19.2032138,8.63098808 17.7723054,8.83011125 16.9239481,9.68217316 L8.90623075,17.7286013 C8.067135,18.573254 7.86893799,19.9847131 8.44315363,21.0275628 L12.7266171,28.7841047 C11.9319767,30.3446746 11.2586626,31.9839676 10.7011177,33.6751253 L2.1916124,36.1062802 C1.03114111,36.4341389 0.158703805,37.5927578 0.166113039,38.7986107 L0.166113039,50.202348 C0.171669964,51.3989393 1.0394765,52.5399614 2.1916124,52.8650415 L10.6724069,55.2665595 C11.2318041,56.9706833 11.9264198,58.6164594 12.7266171,60.1872171 L8.44315363,67.943759 C7.86893799,68.9866086 8.067135,70.3980677 8.90623075,71.2427204 L16.9239481,79.2891486 C17.7723054,80.1412105 19.2032138,80.3403337 20.2525465,79.7522257 L27.9794515,75.4687623 C29.5548399,76.2726642 31.1904283,76.9617229 32.9001091,77.5238986 L35.331264,86.0037669 C35.655418,87.1549767 36.7973662,88.0246355 37.9939575,88.0292663 L49.3967687,88.0292663 C50.59336,88.0200048 51.7362343,87.1549767 52.0594622,86.0037669 L54.4906171,77.5238986 C56.2002978,76.9617229 57.8368124,76.2726642 59.4112746,75.4687623 L67.1381796,79.7522257 C68.1875124,80.3403337 69.6184207,80.1412105 70.466778,79.2891486 L78.4844954,71.2427204 C79.3235912,70.3980677 79.5217882,68.9866086 78.9475725,67.943759 L74.6641091,60.1872171 C75.4643064,58.6164594 76.1598482,56.9706833 76.7183192,55.2665595 L85.1991138,52.8650415 C86.3512496,52.5399614 87.2190562,51.3989393 87.2246131,50.202348 L87.2246131,38.7986107 C87.2320223,37.5927578 86.359585,36.4341389 85.1991138,36.1062802 L76.6896084,33.6751253 C76.1311374,31.9839676 75.4596756,30.3446746 74.6641091,28.7841047 L78.9475725,21.0275628 C79.5217882,19.9847131 79.3235912,18.573254 78.4844954,17.7286013 L70.466778,9.68217316 C69.6184207,8.83011125 68.1875124,8.63098808 67.1381796,9.21909604 L59.4112746,13.5025595 C57.8377386,12.6995837 56.1993717,12.0383096 54.4906171,11.4770601 L52.0594622,2.96755481 C51.7251205,1.82653276 50.5859507,0.972618539 49.3967687,0.970766231 L37.9939575,0.970766231 Z" id="Fill-1"></path>
                    </g>
                </g>
            </g>
        </g>
    </g>
</svg>