<?xml version="1.0" encoding="UTF-8"?>
<svg width="93px" height="94px" viewBox="0 0 93 94" version="1.1" xmlns="http://www.w3.org/2000/svg" xmlns:xlink="http://www.w3.org/1999/xlink">
    <!-- Generator: Sketch 41.2 (35397) - http://www.bohemiancoding.com/sketch -->
    <title>Dollar</title>
    <desc>Created with Sketch.</desc>
    <defs></defs>
    <g id="Page-1" stroke="none" stroke-width="1" fill="none" fill-rule="evenodd">
        <g id="Desktop-1" transform="translate(-1157.000000, -535.000000)" fill="#FFFFFF">
            <g id="Group-5" transform="translate(648.000000, 148.779091)">
                <g id="Group" transform="translate(0.296093, 0.485896)">
                    <g id="Economics" transform="translate(468.335077, 365.886779)">
                        <g id="Dollar" transform="translate(40.000000, 20.000000)">
                            <g id="Page-1" transform="translate(0.381721, 0.025642)">
                                <path d="M46.4414286,86.4095322 C24.3698854,86.4095322 6.47468092,68.5143277 6.47468092,46.4393946 C6.47468092,24.3678515 24.3698854,6.47264699 46.4414286,6.47264699 C68.5163616,6.47264699 86.4081762,24.3678515 86.4081762,46.4393946 C86.3878369,68.5075479 68.506192,86.3891929 46.4414286,86.4095322 M46.4414286,0.00135595412 C20.7935564,0.00135595412 0,20.7915225 0,46.4393946 C0,72.0906567 20.7935564,92.8808232 46.4414286,92.8808232 C72.0893007,92.8808232 92.8828571,72.0906567 92.8828571,46.4393946 C92.8455684,20.8084719 72.0757412,0.0386446924 46.4414286,0.00135595412" id="Fill-1"></path>
                                <path d="M50.5760717,62.6108424 L50.5760717,49.8309749 C56.4744721,51.6649028 56.9863448,53.7971407 56.9863448,56.1361615 C56.9863448,59.5260468 54.5795262,61.7633711 50.5760717,62.4074493 L50.5760717,62.6108424 Z M43.7963011,40.3053972 C38.0673949,38.4748591 37.592811,36.3731302 37.592811,34.0002105 C37.592811,30.8815161 39.9996295,28.6441918 43.7963011,28.0340124 L43.7963011,40.3053972 Z M50.4404762,41.7969467 L50.4404762,28.2374055 C52.8032263,28.9492814 55.0134315,30.1018424 56.949056,31.6272908 C57.6100837,32.1289939 58.4236561,32.3934049 59.2575679,32.3730656 C61.3728563,32.4306936 63.1288169,30.7594802 63.186445,28.6441918 C63.186445,28.6238525 63.1898349,28.6001233 63.1898349,28.5763941 C63.155936,27.1933209 62.4305005,25.918724 61.2542103,25.1865088 C58.1287361,22.8949463 54.5049487,21.3728878 50.6777682,20.745759 L50.6777682,19.7965911 C50.6777682,17.8406273 49.0946918,16.254161 47.1353381,16.254161 C45.1793743,16.254161 43.592908,17.8406273 43.592908,19.7965911 L43.592908,20.5423659 C35.3215878,21.4576349 29.6265805,26.8814514 29.6265805,34.1019071 C29.6265805,41.3223628 33.7283417,45.661416 43.8979976,48.2038299 L43.8979976,62.1362585 C40.3555675,61.3633647 37.0843282,59.668422 34.4063188,57.2209248 C32.7384952,55.8920898 30.3079475,56.1700604 28.9757226,57.8378839 C28.4469004,58.5023015 28.1519804,59.3192638 28.135031,60.170125 C28.0536738,61.5159095 28.6841924,62.800676 29.7960748,63.5600103 C33.7825799,66.82108 38.5928271,68.919419 43.6946045,69.627905 L43.6946045,73.2211834 C43.6946045,75.1771472 45.2810708,76.7636136 47.2370346,76.7636136 C49.1963883,76.7636136 50.7828547,75.1771472 50.7828547,73.2211834 L50.7828547,69.8312981 C59.2880769,68.8143325 64.9152865,63.3566172 64.9152865,56.0005661 C64.9152865,48.644515 60.4745367,44.4410573 50.5760717,42.0003398 L50.4404762,41.7969467 Z" id="Fill-3"></path>
                            </g>
                        </g>
                    </g>
                </g>
            </g>
        </g>
    </g>
</svg>