<svg height='100px' width='100px'  fill="#ffffff" xmlns:dc="http://purl.org/dc/elements/1.1/" xmlns:cc="http://creativecommons.org/ns#" xmlns:rdf="http://www.w3.org/1999/02/22-rdf-syntax-ns#" xmlns:svg="http://www.w3.org/2000/svg" xmlns="http://www.w3.org/2000/svg" xmlns:sodipodi="http://sodipodi.sourceforge.net/DTD/sodipodi-0.dtd" xmlns:inkscape="http://www.inkscape.org/namespaces/inkscape" viewBox="0 0 12.7 12.7" version="1.1" x="0px" y="0px"><g transform="translate(0,-284.29999)"><path style="color:#ffffff;font-style:normal;font-variant:normal;font-weight:normal;font-stretch:normal;font-size:medium;line-height:normal;font-family:sans-serif;font-variant-ligatures:normal;font-variant-position:normal;font-variant-caps:normal;font-variant-numeric:normal;font-variant-alternates:normal;font-feature-settings:normal;text-indent:0;text-align:start;text-decoration:none;text-decoration-line:none;text-decoration-style:solid;text-decoration-color:#ffffff;letter-spacing:normal;word-spacing:normal;text-transform:none;writing-mode:lr-tb;direction:ltr;text-orientation:mixed;dominant-baseline:auto;baseline-shift:baseline;text-anchor:start;white-space:normal;shape-padding:0;clip-rule:nonzero;display:inline;overflow:visible;visibility:visible;opacity:1;isolation:auto;mix-blend-mode:normal;color-interpolation:sRGB;color-interpolation-filters:linearRGB;solid-color:#ffffff;solid-opacity:1;vector-effect:none;fill:#ffffff;fill-opacity:1;fill-rule:nonzero;stroke:none;stroke-width:0.52916664;stroke-linecap:butt;stroke-linejoin:round;stroke-miterlimit:4;stroke-dasharray:none;stroke-dashoffset:0;stroke-opacity:1;color-rendering:auto;image-rendering:auto;shape-rendering:auto;text-rendering:auto;enable-background:accumulate" d="m 4.6666378,286.15515 c -0.1361207,0 -0.2721091,0.0515 -0.3741372,0.15348 l -2.993099,2.99258 c -0.2040562,0.20406 -0.2040562,0.54422 0,0.74828 l 0.7487915,0.74879 c 0.1742213,0.17422 0.4473162,0.19872 0.6506062,0.0754 0.071944,0.14376 0.1709052,0.31264 0.2981732,0.47542 -0.0044,0.004 -0.00963,0.007 -0.013951,0.0114 l -0.1865519,0.18655 c -0.3077054,0.3077 -0.3087391,0.81471 -0.00103,1.12241 0.1437831,0.14378 0.3311763,0.21777 0.5214152,0.22686 0.00949,0.19043 0.083172,0.37824 0.2268595,0.52193 0.1436844,0.14368 0.331311,0.21717 0.5214152,0.22634 0.00941,0.19056 0.083593,0.37815 0.2273763,0.52194 0.1437828,0.14378 0.3311763,0.21777 0.5214152,0.22686 0.00949,0.19042 0.083172,0.37824 0.2268596,0.52193 0.3077048,0.3077 0.8152238,0.30617 1.1229289,-0.002 l 0.1865519,-0.18655 0.1870686,0.18655 c 0.3077059,0.30765 0.8152199,0.30769 1.122929,0 0.1452078,-0.14522 0.2094037,-0.33757 0.2175576,-0.52968 0.192523,-0.008 0.3852119,-0.0731 0.5307169,-0.2186 0.145221,-0.14521 0.2094039,-0.33756 0.2175579,-0.52968 0.1925201,-0.008 0.3852079,-0.0731 0.5307171,-0.21859 0.1453388,-0.14534 0.2100344,-0.33791 0.2180743,-0.5302 0.192291,-0.008 0.3848603,-0.0727 0.5302002,-0.21807 0.307687,-0.30772 0.307702,-0.81471 0,-1.12242 l -0.2046386,-0.20463 c 0.1262769,-0.16115 0.2258618,-0.32794 0.298173,-0.46974 0.2035886,0.12534 0.4786316,0.10117 0.6537066,-0.0739 l 0.748275,-0.74879 c 0.204056,-0.20406 0.204056,-0.54422 0,-0.74828 l -2.9925852,-2.99255 c -0.2040559,-0.20406 -0.5447363,-0.20406 -0.7487914,0 l -0.7482748,0.74827 c -0.1745056,0.17451 -0.1988947,0.44825 -0.074931,0.65164 -0.1478764,0.074 -0.3223564,0.17591 -0.4893757,0.30851 -0.1660363,-0.13068 -0.3382214,-0.23245 -0.4842081,-0.30644 0.1255069,-0.20361 0.1022776,-0.47856 -0.072864,-0.65371 l -0.7487915,-0.74827 c -0.1020281,-0.10203 -0.2380167,-0.15348 -0.3741375,-0.15348 z m 0,0.52762 0.7482748,0.74827 -2.9925822,2.9931 -0.7482745,-0.74879 z m 3.3672365,0 2.9925827,2.99258 -0.748792,0.74879 -2.9925822,-2.9931 z m -0.8113199,1.43454 2.3616129,2.36161 c -0.059823,0.11799 -0.1482614,0.28198 -0.2795696,0.46767 l -1.8319295,-1.83193 c -0.2040639,-0.20406 -0.5442127,-0.20403 -0.7482748,0 l -0.7482747,0.74827 c -0.106907,0.1069 -0.2672403,0.10689 -0.3741372,0 -0.1068851,-0.10689 -0.1068761,-0.26726 0,-0.37413 l 0.9353433,-0.93535 c 0.2117688,-0.21176 0.5094674,-0.35934 0.6852296,-0.43614 z m -1.7461468,0.002 c 0.1239758,0.0553 0.3025867,0.14383 0.4785238,0.26872 l -0.7270874,0.72709 c -0.3077009,0.3077 -0.3076909,0.81469 0,1.12241 0.3077091,0.30768 0.8146991,0.30767 1.1224122,0 l 0.7482747,-0.74828 2.0531045,2.05311 a 0.26460979,0.26460979 0 0 0 0.00517,0.004 l 0.3741373,0.37465 c 0.1068901,0.10689 0.1068901,0.26724 0,0.37414 -0.106893,0.10689 -0.2672615,0.10688 -0.3741373,0 a 0.26460979,0.26460979 0 0 0 -5.291e-4,-5.3e-4 l -0.9353434,-0.93534 a 0.26460982,0.26460982 0 0 0 -0.1896525,-0.0801 0.26460982,0.26460982 0 0 0 -0.1834513,0.45527 l 0.9337932,0.93534 a 0.26516505,0.26516505 0 0 0 0.00362,0.003 c 0.1035775,0.10688 0.103188,0.26475 -0.00259,0.37052 -0.1068829,0.10689 -0.2672543,0.10689 -0.3741375,0 a 0.26516505,0.26516505 0 0 0 0,-5.3e-4 l -0.93586,-0.93534 a 0.26460982,0.26460982 0 0 0 -0.1891359,-0.0801 0.26460982,0.26460982 0 0 0 -0.1855181,0.45476 l 0.9353433,0.93586 a 0.26516505,0.26516505 0 0 0 0.00362,0.003 c 0.1035727,0.10686 0.103187,0.26476 -0.00259,0.37052 -0.1068779,0.10689 -0.2672424,0.1069 -0.3741373,0 a 0.26460979,0.26460979 0 0 0 -0.00827,-0.007 L 6.7248914,292.8574 a 0.26460982,0.26460982 0 0 0 -0.2170409,-0.0801 0.26460982,0.26460982 0 0 0 -0.15813,0.45321 l 0.9353436,0.93534 a 0.26460982,0.26460982 0 0 0 0.0031,0.003 c 0.1040932,0.10686 0.1038833,0.26509 -0.00206,0.37104 -0.1068959,0.10689 -0.2672244,0.10689 -0.3741375,0 l -0.334863,-0.33435 c 0.010435,-0.21618 -0.063197,-0.43578 -0.2268595,-0.59944 -0.1436786,-0.14368 -0.331319,-0.21755 -0.5214155,-0.22738 -0.00941,-0.18992 -0.083593,-0.37711 -0.227376,-0.5209 -0.1437831,-0.14378 -0.3311763,-0.21816 -0.5214154,-0.22789 -0.00944,-0.18987 -0.083111,-0.37715 -0.2268596,-0.5209 -0.1436783,-0.14368 -0.3313187,-0.21755 -0.5214152,-0.22737 -0.00941,-0.18992 -0.083593,-0.37712 -0.2273763,-0.5209 -0.1627426,-0.16275 -0.3808185,-0.2373 -0.5958292,-0.2279 -0.1930244,-0.20934 -0.3283535,-0.48049 -0.4004924,-0.64595 z m -1.9326985,3.53415 c 0.067192,0 0.1346608,0.0267 0.1881021,0.0801 0.1068835,0.10688 0.1053322,0.26777 -0.00156,0.37466 l -0.1865519,0.18603 c -0.1068827,0.10688 -0.2672541,0.10842 -0.3741375,0.002 -0.1068827,-0.10688 -0.1068827,-0.26881 0,-0.37569 l 0.1865519,-0.18655 c 0.053442,-0.0534 0.1203939,-0.0801 0.1875856,-0.0801 z m 0.7487915,0.7488 c 0.067192,0 0.1341445,0.0267 0.1875854,0.0801 0.1068839,0.10689 0.1053528,0.26726 -0.00156,0.37414 l -0.1860351,0.18655 c -0.106883,0.10688 -0.2677713,0.10842 -0.3746543,0.002 -0.1068829,-0.10688 -0.1068829,-0.2688 0,-0.37569 l 0.1865519,-0.18655 c 0.053442,-0.0534 0.1209104,-0.0801 0.1881024,-0.0801 z m 0.7482747,0.74827 c 0.067192,0 0.1346608,0.0267 0.1881021,0.0801 0.106884,0.10688 0.1053529,0.26777 -0.00156,0.37465 l -0.1865519,0.18604 c -0.1068829,0.10688 -0.2672543,0.10841 -0.3741375,0.002 -0.106884,-0.10689 -0.1068829,-0.26881 0,-0.37569 l 0.1865519,-0.18655 c 0.053442,-0.0534 0.1203939,-0.0801 0.1875856,-0.0801 z m 0.7487915,0.74879 c 0.067192,0 0.134144,0.0267 0.1875854,0.0801 0.1068832,0.10688 0.1058695,0.26725 -0.00103,0.37414 l -0.1865519,0.18655 c -0.1068829,0.10688 -0.2677721,0.10841 -0.3746542,0.002 -0.106884,-0.10688 -0.106883,-0.2688 0,-0.37568 l 0.1865521,-0.18655 c 0.053441,-0.0534 0.1209104,-0.0801 0.1881021,-0.0801 z"></path></g></svg>