<?xml version="1.0" encoding="UTF-8"?>
<svg width="88px" height="80px" viewBox="0 0 88 80" version="1.1" xmlns="http://www.w3.org/2000/svg" xmlns:xlink="http://www.w3.org/1999/xlink">
    <!-- Generator: Sketch 41.2 (35397) - http://www.bohemiancoding.com/sketch -->
    <title>Heart</title>
    <desc>Created with Sketch.</desc>
    <defs></defs>
    <g id="Page-1" stroke="none" stroke-width="1" fill="none" fill-rule="evenodd">
        <g id="Desktop-1" transform="translate(-1160.000000, -319.000000)" fill="#FFFFFF">
            <g id="Group-5" transform="translate(648.000000, 148.779091)">
                <g id="Group" transform="translate(0.296093, 0.485896)">
                    <g id="Biology" transform="translate(468.335077, 137.817353)">
                        <g id="Group-6">
                            <g id="Heart" transform="translate(43.000000, 32.000000)">
                                <path d="M76.2161907,41.7825625 L44.4288604,73.5698927 L16.9174169,46.0487312 L18.8610017,46.0487312 C19.903735,46.049703 20.8667813,45.492866 21.387662,44.5910426 L29.2300269,30.9859486 L36.0325739,51.6841555 C36.4076857,52.7618733 37.375591,53.5208432 38.5106446,53.6277403 L38.7924644,53.6277403 C39.8420002,53.6287121 40.8108772,53.0641007 41.3288426,52.1515877 L49.5599244,37.5747013 L53.6803243,44.6104784 C54.2050922,45.5025839 55.1623078,46.049703 56.1972667,46.0487312 L64.885091,46.0487312 C66.495351,46.0487312 67.8004683,44.743614 67.8004683,43.1333539 C67.8004683,41.5230939 66.495351,40.2179767 64.885091,40.2179767 L57.8590317,40.2179767 L52.0282772,30.3348477 C51.50934,29.4271936 50.5365758,28.8761873 49.491899,28.8965949 C48.4491657,28.9033975 47.4890348,29.4660653 46.9749566,30.3737194 L39.5698983,43.5803785 L32.7673513,22.9395073 C32.2649346,21.4099061 30.6167747,20.57708 29.0871734,21.0794966 C28.4049751,21.3039807 27.829674,21.7723846 27.4710826,22.3953036 L17.160365,40.2179767 L11.2324312,40.2179767 C3.88082147,31.2395864 5.1995438,18.0028018 14.177934,10.6511921 C22.5246592,3.81657599 34.6934439,4.41422833 42.3297888,12.0359963 C42.8759361,12.5831155 43.6174138,12.8902019 44.3899887,12.8911737 C45.1625637,12.8902019 45.9040413,12.5831155 46.4501887,12.0359963 C54.66475,3.81657599 67.9870524,3.81171703 76.2064727,12.0262784 C84.4258931,20.2408398 84.430752,33.5631421 76.2161907,41.7825625 M80.3851802,7.94475022 C70.6468483,-1.79358168 55.1234361,-2.5991976 44.4288604,6.07890876 C32.8927125,-3.23086268 15.9942141,-1.42721594 6.68444262,10.1079602 C-1.49707781,20.2456987 -1.21817338,34.7934313 7.34526147,44.6104784 C7.54933788,44.949634 7.82046797,45.2440871 8.14213126,45.4753737 L8.52113031,45.8738086 L40.2987426,77.6514209 C42.5746805,79.9293023 46.2665199,79.9322177 48.5444013,77.6553081 C48.5463449,77.6543363 48.5473167,77.6523927 48.5492603,77.6514209 L80.3851802,45.9029624 C90.8241744,35.403717 90.8241744,18.4439956 80.3851802,7.94475022" id="Fill-1"></path>
                            </g>
                        </g>
                    </g>
                </g>
            </g>
        </g>
    </g>
</svg>