<?xml version="1.0" encoding="UTF-8"?>
<svg width="89px" height="83px" viewBox="0 0 89 83" version="1.1" xmlns="http://www.w3.org/2000/svg" xmlns:xlink="http://www.w3.org/1999/xlink">
    <!-- Generator: Sketch 41.2 (35397) - http://www.bohemiancoding.com/sketch -->
    <title>Leaf</title>
    <desc>Created with Sketch.</desc>
    <defs></defs>
    <g id="Page-1" stroke="none" stroke-width="1" fill="none" fill-rule="evenodd">
        <g id="Desktop-1" transform="translate(-919.000000, -674.000000)" fill="#FFFFFF">
            <g id="Group-5" transform="translate(648.000000, 148.779091)">
                <g id="Group" transform="translate(0.296093, 0.485896)">
                    <g id="Environment" transform="translate(234.167539, 498.825642)">
                        <g id="Leaf" transform="translate(36.000000, 26.000000)">
                            <path d="M81.5159707,22.5549663 C81.4235298,24.2696474 81.2723506,25.9769139 81.0624328,27.6769586 C80.5109655,31.6073308 79.6367256,35.4988972 78.3480427,39.2617204 C78.0275811,40.1915211 77.6805429,41.1147739 77.3094314,42.031864 C75.8400074,45.4368641 74.0030348,48.6762412 71.7587448,51.6306886 C69.62548,54.3002065 67.1629911,56.6744914 64.493377,58.8004379 C61.7395069,60.8914302 58.7747562,62.6986484 55.5991248,64.0730317 C53.0941709,65.0712964 50.4880135,65.7902164 47.8200364,66.1846307 C45.2785876,66.4773599 42.7182655,66.4716787 40.1837498,66.1810678 C37.5166393,65.7833797 34.9045118,65.0681188 32.3991727,64.0676394 C30.7208902,63.3383197 29.09605,62.4808347 27.5537325,61.4918142 C30.4000435,60.040782 33.2672499,58.6164229 36.1140422,57.1721312 C41.8145601,54.2833553 47.4765609,51.2501405 52.5800651,47.38881 C55.7962356,44.952609 58.8101918,42.3141937 61.5641582,39.3676422 C62.2574644,38.635819 62.6907808,37.6632644 62.6907808,36.6425636 C62.6907808,35.6988968 62.26719,34.5722742 61.5641582,33.9174849 C60.832335,33.2434372 59.8694097,32.7427161 58.8390796,32.7908623 C57.8377336,32.8390086 56.8169364,33.1664032 56.114001,33.9174849 C53.85623,36.3215243 51.4400578,38.5667772 48.8534478,40.6090455 C45.2878317,43.3194877 41.4582777,45.6414858 37.5199132,47.7643509 C32.9652765,50.2294397 28.2950887,52.4730557 23.6826765,54.8225934 C23.0737225,55.1337146 22.4626501,55.4429099 21.8519629,55.7535496 C21.6276976,55.3284181 21.4193205,54.8951017 21.2253874,54.4563929 C20.4888458,52.5750295 19.9805175,50.6021881 19.6774849,48.6028663 C19.4290502,46.4137519 19.4218283,44.2070159 19.667952,42.0250272 C19.9744511,40.0154021 20.5054081,38.0444865 21.2477272,36.1537827 C22.0664063,34.3079512 23.0864331,32.5549456 24.2940378,30.9340534 C25.6422295,29.2656891 27.1800212,27.7532223 28.8512744,26.4076304 C31.4509801,24.4514477 34.3178977,22.8908346 37.3086474,21.5983963 C41.0183171,20.1044176 44.890625,19.08805 48.8458407,18.5186722 C53.8909916,17.9043259 58.9786075,17.9989815 64.0486018,17.7018227 C69.3831117,17.3840573 74.6984595,16.459649 79.3686472,13.6960534 C80.0847748,13.2711145 80.7798143,12.8100658 81.4533805,12.3182999 C81.6861196,15.7251296 81.707015,19.1484254 81.5159707,22.5549663 M80.9826309,7.49596991 C80.9949491,7.57213731 81.0073892,7.64820841 81.0195855,7.72447209 C81.0006813,7.61575782 80.9836066,7.50829536 80.966044,7.39986997 C80.9717762,7.43183909 80.9770206,7.4639045 80.9826309,7.49596991 M89.2867779,15.2848802 C89.1633309,11.4682294 88.8053153,7.63299419 88.1492743,3.87113387 C88.1288602,3.68268939 88.093232,3.49058579 88.0439302,3.29934882 C88.0375749,3.26959443 88.0322788,3.2390697 88.0254421,3.20979677 C87.9531264,2.84831461 87.7820145,2.48423255 87.5546679,2.14759386 C87.4068588,1.91052165 87.2359396,1.69463379 87.043162,1.51504822 C86.9860605,1.4624725 86.9270332,1.41134117 86.8671392,1.36098017 C86.6686803,1.1827427 86.4603033,1.02828948 86.2535632,0.908405275 C86.1365678,0.840422748 86.0114838,0.778699236 85.8810074,0.722464398 C85.4242919,0.507346883 84.9290594,0.38014445 84.4154351,0.387077512 C84.0226578,0.369648564 83.6348878,0.411150645 83.2877532,0.523235151 C83.2342146,0.540278929 83.1808685,0.55857451 83.1276188,0.577544138 C82.578655,0.736426815 82.0606975,1.00325342 81.6840011,1.41240038 C81.4541509,1.61817752 81.2514551,1.85351647 81.0872763,2.11928385 C79.9741347,3.42106258 78.7671078,4.63675579 77.4408708,5.71879496 C76.1116487,6.70011214 74.6864229,7.53766458 73.1777115,8.21219376 C71.271986,8.94757982 69.2838341,9.41411713 67.2705499,9.71406837 C63.9456651,10.1061716 60.5893889,10.1293781 57.2502528,10.2295223 C53.0037522,10.3547026 48.7668808,10.6628387 44.587785,11.4428082 C39.6864952,12.347958 34.9489026,14.0427065 30.5098169,16.2959517 C26.6099694,18.2795779 22.9219655,20.9179932 19.9657848,24.1630515 C17.2503354,27.1384908 15.2089337,30.4991001 13.7549165,34.2448795 C12.5512599,37.3551283 11.9446169,40.7061084 11.8098074,44.03783 C11.6846271,47.0710447 12.021651,50.1716642 12.7342157,53.1182156 C13.2654616,55.3097374 14.0550603,57.5006813 15.120152,59.5008698 C12.9631993,60.8830528 10.8947395,62.4444362 9.01732399,64.1822275 C6.33076237,66.6473163 3.89456134,69.6709017 2.41165636,73.0507696 C1.57391134,74.966991 0.880605113,76.8928416 0.736166317,78.9920188 L0.736166317,79.0497943 C0.649503039,81.0623082 2.57535366,82.9881588 4.58786756,82.9014955 C6.70803651,82.8166618 8.27404194,81.283781 8.43042102,79.1969293 C8.58314097,78.3886498 8.82820546,77.59674 9.12391982,76.832081 C9.78891604,75.354761 10.6349422,73.9696892 11.6001786,72.6706067 C13.0004645,70.9463926 14.6123052,69.3990679 16.3429709,68.0107222 C17.5462424,67.1015281 18.7994896,66.2761086 20.0850912,65.5039388 C20.1543256,65.5610402 20.223271,65.6184306 20.2931794,65.6747617 C22.7390097,67.6391293 25.3581665,69.3146194 28.2276839,70.5856808 C29.9994665,71.3752795 31.7905076,72.078215 33.6489535,72.6174532 C35.6710966,73.2048376 37.7317568,73.56112 39.8116754,73.8211098 C43.9522543,74.3507188 48.1891256,74.0618412 52.2622997,73.1566914 C57.019247,72.0974735 61.6123045,70.0271841 65.6758493,67.3502517 C69.9030914,64.5673976 73.8607144,61.197159 77.038368,57.2491652 C79.6767833,53.9752192 81.9108663,50.4605418 83.6344064,46.6184698 C85.2617501,42.9882414 86.55207,39.2328327 87.4476869,35.3522437 C88.9497541,28.7947223 89.5082507,21.9964696 89.2867779,15.2848802" id="Fill-1"></path>
                        </g>
                    </g>
                </g>
            </g>
        </g>
    </g>
</svg>