<?xml version="1.0" encoding="UTF-8"?>
<svg width="575px" height="575px" viewBox="0 0 575 575" version="1.1" xmlns="http://www.w3.org/2000/svg" xmlns:xlink="http://www.w3.org/1999/xlink">
    <!-- Generator: Sketch 41.2 (35397) - http://www.bohemiancoding.com/sketch -->
    <title>LightBulbInner</title>
    <desc>Created with Sketch.</desc>
    <defs></defs>
    <g id="Page-1" stroke="none" stroke-width="1" fill="none" fill-rule="evenodd">
        <g id="Desktop-Screen-1" transform="translate(-704.000000, -228.000000)">
            <g id="LightBulbInner" transform="translate(707.000000, 231.000000)">
                <g id="Page-1" stroke-width="1" fill-rule="evenodd" transform="translate(10.343750, 38.272010)">
                    <g id="Group-3" transform="translate(0.000000, 0.037377)" fill="#FF8E00">
                        <path d="M208.995709,20.9583176 C208.264858,20.9583176 207.568206,20.5339935 207.25408,19.8221423 L199.820175,2.89351041 C199.398384,1.93213132 199.835374,0.812422333 200.796754,0.389364866 C201.760666,-0.0311593224 202.879108,0.404564536 203.299632,1.36594363 L210.734804,18.2933089 C211.156595,19.254688 210.719604,20.3756636 209.758225,20.7974544 C209.509964,20.9063854 209.250303,20.9583176 208.995709,20.9583176 M431.161677,40.1276341 C430.86655,40.1276341 430.566357,40.0592355 430.28643,39.9123054 C427.540356,38.4835365 426.007723,35.6728643 426.472579,32.9179242 C426.893104,30.4327782 428.89186,28.6354173 431.689866,28.2250262 C434.658868,27.7880357 437.165547,29.0584748 438.378987,31.6208857 C439.47083,33.9261689 439.168103,36.5949775 437.662069,37.9667477 C436.888153,38.6709991 435.686112,38.6178002 434.979328,37.8426171 C434.271276,37.0661673 434.327009,35.8653934 435.102192,35.1573421 C435.250388,34.9635464 435.366919,33.9502351 434.833664,33.0382549 C434.324475,32.1630073 433.447961,31.8083483 432.240854,31.9856778 C431.418805,32.1060085 430.400427,32.4746005 430.220565,33.5512437 C430.067301,34.4556241 430.571424,35.7779953 432.039458,36.5417787 C432.971705,37.0269015 433.332697,38.1732099 432.848841,39.1041896 C432.509381,39.7552422 431.846929,40.1276341 431.161677,40.1276341 M343.787644,96.770469 C342.636269,96.770469 341.460828,96.6286054 340.267654,96.3410783 C334.603244,94.9705748 330.134541,90.6678017 329.877413,86.332096 C329.814081,85.2858521 330.613331,84.3852716 331.660841,84.3232063 C332.731151,84.2649409 333.607665,85.0603903 333.669731,86.1079008 C333.809061,88.4245838 336.851528,91.6051146 341.160635,92.6475586 C343.98524,93.3290105 349.289924,93.5139398 353.096175,87.0794131 C355.699118,82.6765755 355.60412,78.3560694 352.836514,75.2274708 C349.598984,71.569417 343.65338,70.6219709 338.375295,72.9234542 C337.413916,73.3439784 336.294207,72.9044546 335.873683,71.9430755 C335.454425,70.9816964 335.893949,69.8607208 336.856595,69.4414633 C343.733179,66.4420618 351.297547,67.7543 355.682652,72.7093922 C359.557301,77.0894303 359.813162,83.1844978 356.366637,89.0123044 C353.405235,94.0243954 348.858,96.770469 343.787644,96.770469 M4.19662874,102.40068 C3.78117111,102.40068 3.3631802,102.265149 3.0135878,101.986489 C2.19280565,101.332903 2.05727526,100.138462 2.71086105,99.3164136 L11.510203,88.2662539 L0.812169005,80.7880165 C-0.049145598,80.186363 -0.258141053,79.0020554 0.34351253,78.1420074 C0.945166113,77.2832261 2.12947369,77.0742306 2.98825502,77.6733509 L13.8813515,85.2883853 L22.6895599,74.2280925 C23.3431457,73.4098436 24.5375864,73.2743133 25.3596352,73.9253658 C26.1791507,74.5789516 26.3146811,75.7746589 25.6610953,76.595441 L17.0023503,87.4695379 L26.9606671,94.4297199 C27.820715,95.0313735 28.0309771,96.215681 27.4293235,97.075729 C26.8289366,97.9370436 25.6458956,98.1473057 24.7833144,97.5443855 L14.6312018,90.4474065 L5.68366307,101.683762 C5.30873789,102.154952 4.75521659,102.40068 4.19662874,102.40068 M201.378141,123.340758 C200.756221,123.340758 200.146968,123.035498 199.782176,122.474377 L176.253087,86.1851658 C175.6831,85.3048516 175.933894,84.1281439 176.814208,83.5568897 C177.694523,82.9856354 178.87123,83.2351633 179.442485,84.1180108 L202.971573,120.407222 C203.54156,121.287536 203.290766,122.464244 202.410452,123.035498 C202.091259,123.24196 201.7328,123.340758 201.378141,123.340758 M385.905928,131.23192 C385.442338,131.23192 384.978748,131.063457 384.61269,130.723997 C383.845106,130.009613 383.799507,128.807572 384.515158,128.038722 L413.518661,96.8224012 C414.233046,96.0535512 415.436353,96.0104855 416.203936,96.7223367 C416.972786,97.4367212 417.017118,98.6400283 416.302734,99.4088783 L387.297965,130.625199 C386.924306,131.027991 386.416384,131.23192 385.905928,131.23192 M469.886635,142.450542 C469.262182,142.450542 468.650395,142.142749 468.288137,141.579095 C467.719416,140.696247 467.975277,139.520806 468.858124,138.953352 L522.806818,104.270239 C523.687132,103.704052 524.865106,103.958646 525.432561,104.841493 C526.000015,105.724341 525.744154,106.899782 524.862573,107.467236 L470.91388,142.149082 C470.595953,142.353011 470.240028,142.450542 469.886635,142.450542 M143.867658,177.276785 C143.487666,177.276785 143.103875,177.164054 142.770749,176.928459 L116.728648,158.497593 C115.8724,157.890873 115.669738,156.705299 116.275192,155.849051 C116.881912,154.991536 118.067486,154.790141 118.925001,155.395594 L144.967101,173.82646 C145.823349,174.43318 146.026011,175.618754 145.419291,176.475002 C145.049432,176.998124 144.462979,177.276785 143.867658,177.276785 M401.180329,221.539489 C399.898491,221.539489 398.641985,221.110098 397.523542,220.248784 C395.504519,218.693351 394.557073,216.179072 395.272724,214.27278 C395.642583,213.288602 396.736959,212.793346 397.719871,213.161938 C398.701517,213.531797 399.199306,214.626173 398.830714,215.609085 C398.787648,215.849746 399.147374,216.804792 400.035288,217.373513 C400.890269,217.919435 401.827582,217.837103 402.82316,217.129052 C403.499546,216.648995 404.23673,215.857346 403.90867,214.816169 C403.633809,213.940921 402.581232,212.993475 400.928268,212.982075 C399.879491,212.974475 399.034643,212.116961 399.042243,211.068183 C399.048576,210.023206 399.898491,209.182158 400.942201,209.182158 L400.954868,209.182158 C404.049267,209.203691 406.692743,211.008651 407.533791,213.672394 C408.289975,216.076475 407.331129,218.586953 405.024579,220.225984 C403.794672,221.101232 402.474835,221.539489 401.180329,221.539489 M30.9227142,246.64301 C30.6263207,246.64301 30.3261272,246.574611 30.0462,246.427681 C23.3900114,242.96469 19.6597591,236.254036 20.7604685,229.729578 C21.7332474,223.96257 26.3146811,219.933391 33.0139354,218.953012 C40.084315,217.919435 45.9931865,220.87957 48.8304581,226.874573 C51.3244706,232.143792 50.782349,238.321191 47.5714189,241.245861 C46.7949691,241.951379 45.5941952,241.895646 44.8874106,241.120463 C44.1806259,240.344014 44.2376247,239.141973 45.0128078,238.436455 C46.7291038,236.873422 47.2914916,232.507317 45.3953328,228.500938 C44.1527599,225.873928 40.9620959,221.62942 33.5649234,222.713664 C28.5034335,223.453381 25.202572,226.241254 24.5071871,230.361631 C23.6940048,235.178659 26.6934062,240.399746 31.8004951,243.057155 C32.7314749,243.542277 33.092467,244.688586 32.6086109,245.619565 C32.2704183,246.270618 31.607966,246.64301 30.9227142,246.64301 M415.854344,276.186101 C414.846099,276.186101 414.006317,275.394451 413.958185,274.37734 C413.907519,273.32983 414.716902,272.439382 415.764412,272.388717 L471.951257,269.695842 C472.989901,269.650243 473.890482,270.454559 473.93988,271.503336 C473.990546,272.550846 473.18243,273.441294 472.13492,273.491959 L415.946808,276.184834 C415.915142,276.186101 415.884743,276.186101 415.854344,276.186101 M139.235559,278.697846 C137.952453,278.697846 136.695947,278.268455 135.577505,277.407141 C133.557216,275.850441 132.611036,273.337429 133.329221,271.431138 C133.697813,270.449492 134.792189,269.951703 135.776367,270.321562 C136.758013,270.69142 137.254535,271.787063 136.884677,272.768708 C136.842878,273.00937 137.201336,273.964416 138.090517,274.533137 C138.942965,275.079058 139.882811,274.996727 140.877123,274.288675 C141.553508,273.807353 142.291959,273.015703 141.9639,271.975792 C141.687772,271.100545 140.637728,270.153099 138.982231,270.140432 C137.933454,270.132832 137.088606,269.275318 137.096205,268.226541 C137.105072,267.177763 138.000586,266.335448 139.011364,266.340515 C142.105763,266.363314 144.749239,268.169542 145.587754,270.833284 C146.345204,273.236098 145.383825,275.747844 143.078542,277.385608 C141.847369,278.260856 140.527531,278.697846 139.235559,278.697846 M43.1951807,306.908433 C42.3275329,306.908433 41.5460165,306.311846 41.3446209,305.431531 C41.1102927,304.408087 41.7499454,303.389709 42.7733899,303.155381 L103.430204,289.295816 C104.449849,289.065287 105.47076,289.70114 105.705088,290.725851 C105.939416,291.748029 105.298497,292.766407 104.276319,293.000735 L43.6195048,306.8603 C43.4776412,306.893233 43.334511,306.908433 43.1951807,306.908433 M375.660084,354.962188 C370.750591,354.962188 366.346487,352.023585 363.59788,346.791099 C360.276752,340.46677 361.108934,333.904312 365.824632,329.23928 C369.966541,325.140436 375.979277,323.604003 379.798194,325.661025 C380.722841,326.158814 381.068633,327.311456 380.570844,328.234836 C380.073055,329.158216 378.91788,329.502741 377.997033,329.007485 C375.951411,327.908043 371.649905,328.822556 368.49724,331.941022 C366.431352,333.984111 363.485149,338.402148 366.962073,345.024137 C369.339555,349.551105 373.066007,351.738591 377.182585,351.029273 C381.99708,350.199625 385.926194,345.637191 386.740643,339.936048 C386.88884,338.897404 387.840086,338.174153 388.89013,338.323616 C389.928774,338.471813 390.652025,339.434459 390.502562,340.473103 C389.441118,347.901941 384.349229,353.648683 377.82857,354.774725 C377.096453,354.901389 376.371935,354.962188 375.660084,354.962188 M75.1195531,369.27141 C74.4381013,369.27141 73.7807156,368.904085 73.438723,368.261899 C72.947267,367.334719 73.2993927,366.18461 74.2265726,365.693154 L121.429146,340.631433 C122.357593,340.137443 123.505168,340.492102 123.999157,341.418016 C124.490613,342.345195 124.138487,343.49657 123.211307,343.988026 L76.0087338,369.048481 C75.72374,369.199211 75.4197466,369.27141 75.1195531,369.27141 M158.098349,397.77839 C157.684158,397.77839 157.266167,397.644126 156.916574,397.364199 C156.095792,396.710613 155.960262,395.516173 156.613848,394.69539 L165.411923,383.645231 L154.713889,376.165727 C153.852574,375.564073 153.643579,374.379765 154.243966,373.519718 C154.846886,372.660936 156.029927,372.450674 156.889975,373.051061 L167.784338,380.666095 L176.59128,369.605803 C177.244866,368.786287 178.439306,368.650757 179.260089,369.304343 C180.080871,369.957928 180.216401,371.152369 179.562815,371.974418 L170.90407,382.847248 L180.862387,389.808697 C181.722435,390.409084 181.93143,391.594658 181.331043,392.453439 C180.730657,393.314754 179.546349,393.525016 178.685034,392.923362 L168.532922,385.826383 L159.58665,397.062739 C159.211724,397.532662 158.658203,397.77839 158.098349,397.77839 M368.754368,401.30218 C368.319911,401.30218 367.881653,401.153983 367.524461,400.848723 L342.046015,379.138529 C341.246766,378.458343 341.150501,377.258836 341.831953,376.460854 C342.513405,375.664138 343.710379,375.564073 344.509628,376.246792 L369.988074,397.956986 C370.787324,398.637171 370.882322,399.836679 370.202136,400.634661 C369.825945,401.076718 369.292689,401.30218 368.754368,401.30218 M512.56984,412.109145 C511.288002,412.109145 510.032762,411.679754 508.91432,410.81844 C506.892764,409.26174 505.946584,406.748728 506.663502,404.84117 C507.033361,403.858258 508.131537,403.361735 509.111916,403.732861 C510.093561,404.101452 510.590083,405.197095 510.221491,406.178741 C510.179692,406.419402 510.536885,407.375715 511.426065,407.943169 C512.278513,408.48909 513.215826,408.408026 514.211405,407.699974 C514.890323,407.218651 515.627507,406.427002 515.300714,405.387091 C515.024587,404.511844 513.973277,403.563131 512.317779,403.551731 C511.267735,403.542865 510.424154,402.686617 510.431754,401.636573 C510.439353,400.587796 511.277869,399.789813 512.345645,399.751814 C515.441311,399.774613 518.084787,401.580841 518.924569,404.245849 C519.682019,406.648664 518.719373,409.159143 516.41409,410.796907 C515.182917,411.672155 513.863079,412.109145 512.56984,412.109145 M463.512907,472.816625 C463.098716,472.816625 462.680725,472.682361 462.329866,472.403701 C461.510351,471.750115 461.37482,470.554407 462.02714,469.733625 L470.826482,458.683466 L460.128447,451.203962 C459.2684,450.602308 459.058137,449.418 459.659791,448.557952 C460.261445,447.696638 461.445752,447.488909 462.3058,448.089296 L473.19763,455.70433 L482.004572,444.645304 C482.659424,443.825789 483.853865,443.687725 484.674647,444.342577 C485.494163,444.996163 485.63096,446.190604 484.977374,447.012653 L476.318629,457.88675 L486.276946,464.848198 C487.135727,465.448585 487.345989,466.634159 486.745602,467.494207 C486.142682,468.354255 484.958374,468.560717 484.099593,467.962864 L473.946214,460.864618 L465.001208,472.100974 C464.625016,472.570897 464.071495,472.816625 463.512907,472.816625 M28.0474434,490.189847 C27.469856,490.189847 26.8998684,489.927653 26.5262098,489.429864 C25.8966902,488.591349 26.0651532,487.400708 26.9049349,486.769921 L38.0931583,478.365771 C38.9316734,477.734985 40.1235808,477.903448 40.7531005,478.743229 C41.3838867,479.581744 41.2154237,480.773652 40.375642,481.403172 L29.186152,489.808589 C28.8441594,490.065716 28.4439015,490.189847 28.0474434,490.189847" id="Fill-1"></path>
                    </g>
                    <path d="M241.248647,223.969675 C239.683081,223.969675 238.255579,224.771457 237.268867,226.229359 C235.975629,228.139451 235.776766,230.62713 236.772345,232.421957 C237.589327,233.891259 238.302445,233.982457 238.535506,234.011589 C240.568462,234.266184 243.930122,230.752527 247.175252,227.350334 C247.190451,227.333868 247.205651,227.318668 247.220851,227.302202 C244.853502,224.790457 242.924411,224.145737 241.843968,224.007674 C241.643839,223.982341 241.444976,223.969675 241.248647,223.969675" id="Fill-4" fill="#FFFFFF"></path>
                    <path d="M273.346296,292.028601 L273.190499,292.028601 C269.337383,292.028601 266.375981,293.030513 264.384824,295.00647 C262.14034,297.234488 261.743882,300.137625 261.674216,301.066071 L283.717537,300.784877 C283.709937,299.782966 283.498408,297.053359 281.56805,294.949471 C279.812489,293.036846 277.047415,292.053934 273.346296,292.028601" id="Fill-6" fill="#FFFFFF"></path>
                    <path d="M263.374046,327.34668 L280.500274,327.241549 C281.14626,327.209883 281.770713,327.801403 281.774513,328.501855 C281.778313,329.20104 281.215925,329.771027 280.515473,329.774827 L263.389246,329.879958 L263.381646,329.879958 C262.684994,329.879958 262.118807,329.31757 262.115007,328.620919 C262.111207,327.921734 262.673595,327.35048 263.374046,327.34668 M263.362646,315.51627 L280.135482,315.268009 C280.847333,315.261676 281.410987,315.816464 281.42112,316.515649 C281.431253,317.214833 280.872666,317.791154 280.173481,317.801287 L263.400645,318.049549 L263.381646,318.049549 C262.690061,318.049549 262.12514,317.494761 262.115007,316.801909 C262.104874,316.102724 262.662195,315.526404 263.362646,315.51627 M334.191839,217.664598 C333.001199,181.086594 300.860231,163.304247 272.84724,163.458777 C247.028068,163.599374 210.320866,181.327255 209.619148,219.204831 C208.621037,273.074993 248.962226,285.813583 248.962226,285.813583 L252.898941,294.092336 C252.898941,294.092336 250.973649,327.9496 254.327709,337.506392 C256.074405,342.483017 262.729327,348.374156 272.649644,348.149961 C280.089883,347.981498 289.416146,345.412754 290.741051,333.084555 C291.760695,323.603761 291.779695,311.212231 291.634032,302.873945 C291.411103,303.085474 291.114709,303.224804 290.78285,303.228604 L254.069315,303.695994 L254.054115,303.695994 C253.361264,303.695994 252.795076,303.13994 252.787476,302.445821 C252.77861,301.746637 253.337198,301.171582 254.037649,301.162716 L259.133338,301.098117 C259.184004,300.036674 259.576662,296.234223 262.56973,293.238622 C262.942122,292.86623 263.348713,292.529304 263.770504,292.211377 C263.63624,292.034048 263.532376,291.831385 263.505777,291.593257 C263.465244,291.214532 259.418332,253.502886 255.731146,243.151911 C253.352397,236.474189 250.981249,232.109351 248.854562,229.260679 C244.903914,233.402589 241.470056,236.944112 238.214793,236.524855 C236.744225,236.336126 235.513052,235.36968 234.558006,233.652117 C233.110238,231.042841 233.355965,227.489918 235.171059,224.80971 C236.812624,222.385362 239.434567,221.150389 242.162907,221.494915 C244.080599,221.73811 246.437814,222.756488 248.998959,225.450629 C253.191534,221.149123 257.8059,217.055345 262.484865,217.940726 C266.039055,218.615844 269.432381,220.422072 272.194921,222.695689 C276.05817,218.245986 281.537651,214.687996 286.464877,215.102187 C293.254063,215.673442 297.743032,218.458781 300.874164,221.363185 C302.850121,219.886283 304.785546,219.035102 306.529708,218.713375 C309.033853,218.256119 311.216272,218.902105 312.387914,220.443605 C313.503823,221.907839 313.554488,223.963595 312.527244,226.082682 C310.86288,229.516541 309.544309,230.989642 307.974943,231.165705 C306.09525,231.373434 304.73868,229.677404 303.012251,227.522851 C302.344732,226.690669 301.598681,225.759689 300.729767,224.810976 C297.298442,228.078905 293.761985,233.672384 291.233774,242.25133 C285.978488,260.093209 282.3331,289.583101 282.295101,289.878228 C282.211503,290.572346 281.585783,291.065069 280.885332,290.982737 C280.189947,290.896606 279.697224,290.26582 279.782089,289.570435 C279.817555,289.272774 283.490809,259.57642 288.80436,241.535679 C291.446569,232.564074 295.170488,226.608337 298.93114,223.013615 C296.104001,220.452471 292.168553,218.124388 286.252082,217.626599 C282.19377,217.28334 277.43754,220.506936 274.065747,224.405652 C277.075281,227.451919 278.937241,230.971909 278.757378,233.702783 C278.675047,234.941556 277.999928,237.852293 273.517292,238.099287 C270.064434,238.293083 268.509001,236.942846 267.823749,235.780071 C266.516578,233.563453 267.19043,230.030796 269.667976,226.087748 C269.966903,225.612759 270.287362,225.137769 270.628088,224.667846 C268.227807,222.679223 265.236006,221.041458 262.012409,220.429672 C258.524085,219.769753 254.429041,223.494938 250.64559,227.389853 C253.06867,230.552651 255.619681,235.289882 258.11876,242.301996 C261.736282,252.462975 265.507066,286.524168 265.978256,290.891539 C268.051744,289.936493 270.528024,289.460237 273.364029,289.495703 C277.813732,289.526102 281.210858,290.794008 283.459143,293.263954 C285.939222,295.988495 286.243215,299.359022 286.252082,300.752325 L290.749917,300.695326 C291.061511,300.688993 291.364237,300.820723 291.597299,301.030985 C291.502301,296.581282 291.371837,293.670545 291.371837,293.670545 L296.549858,284.638142 C301.80261,282.72805 335.705473,264.176854 334.191839,217.664598" id="Fill-8" fill="#FFFFFF"></path>
                    <path d="M273.378469,235.569176 C276.104276,235.418446 276.195474,234.050475 276.229673,233.534953 C276.352537,231.675527 274.909835,228.928187 272.499421,226.408841 C272.257493,226.750834 272.028231,227.094093 271.812903,227.436086 C269.942077,230.411421 269.234025,233.182828 270.006675,234.495066 C270.600729,235.504577 272.167562,235.635041 273.378469,235.569176" id="Fill-10" fill="#FFFFFF"></path>
                    <path d="M307.690329,228.649019 C307.827126,228.63382 308.597243,228.384292 310.24894,224.978299 C310.85186,223.73066 310.896193,222.665416 310.371804,221.977631 C309.78915,221.211315 308.526311,220.921254 306.988611,221.204981 C305.691572,221.444376 304.218471,222.084029 302.676971,223.188538 C303.571219,224.17145 304.328669,225.116363 304.987321,225.938412 C305.923367,227.104986 307.255872,228.693352 307.690329,228.649019" id="Fill-12" fill="#FFFFFF"></path>
                </g>
                <path d="M519.988676,284.712033 C519.988676,441.493834 414.452407,568.602321 284.278831,568.602321 C154.105255,568.602321 48.5689865,441.493834 48.5689865,284.712033 C48.5689865,127.930232 154.105255,0.849246307 284.278831,0.849246307 C414.452407,0.849246307 519.988676,127.930232 519.988676,284.712033" id="Fill-162" stroke="#FF8E00" stroke-width="6"></path>
                <path d="M519.988676,284.712033 C519.988676,441.493834 414.452407,568.602321 284.278831,568.602321 C154.105255,568.602321 48.5689865,441.493834 48.5689865,284.712033 C48.5689865,127.930232 154.105255,0.849246307 284.278831,0.849246307 C414.452407,0.849246307 519.988676,127.930232 519.988676,284.712033" id="Fill-162" stroke="#FF8E00" stroke-width="6" transform="translate(284.278831, 284.725784) rotate(-270.000000) translate(-284.278831, -284.725784) "></path>
            </g>
        </g>
    </g>
</svg>