<?xml version="1.0" encoding="UTF-8"?>
<svg width="89px" height="97px" viewBox="0 0 89 97" version="1.1" xmlns="http://www.w3.org/2000/svg" xmlns:xlink="http://www.w3.org/1999/xlink">
    <!-- Generator: Sketch 41.2 (35397) - http://www.bohemiancoding.com/sketch -->
    <title>molecule</title>
    <desc>Created with Sketch.</desc>
    <defs>
        <polygon id="path-1" points="87.9754506 96.0445709 87.9754506 0 0.000336999677 0 0.000336999677 96.0445709 87.9754506 96.0445709"></polygon>
    </defs>
    <g id="Page-1" stroke="none" stroke-width="1" fill="none" fill-rule="evenodd">
        <g id="Desktop-1" transform="translate(-687.000000, -301.000000)">
            <g id="Group-5" transform="translate(648.000000, 148.779091)">
                <g id="Group" transform="translate(0.296093, 0.485896)">
                    <g id="Health" transform="translate(0.000000, 137.817353)">
                        <g id="molecule" transform="translate(39.000000, 14.000000)">
                            <g id="Page-1" transform="translate(0.343317, 0.482571)">
                                <g id="Group-7" transform="translate(0.000000, 0.000842)">
                                    <g id="Group-4">
                                        <mask id="mask-2" fill="white">
                                            <use xlink:href="#path-1"></use>
                                        </mask>
                                        <g id="Clip-3"></g>
                                    </g>
                                </g>
                                <polygon id="Fill-1" fill="#FFFFFF" points="30.3538979 57.7565211 41.1833825 68.5860057 44.7572641 65.0121242 33.9277795 54.1826395"></polygon>
                                <path d="M66.9301578,6.78599399 C66.9301578,5.83228491 67.7052571,5.05550065 68.6589662,5.05550065 C69.6143602,5.05550065 70.3894595,5.83228491 70.3894595,6.78599399 C70.3894595,7.73970308 69.6143602,8.51648733 68.6589662,8.51648733 C67.7052571,8.51648733 66.9301578,7.73970308 66.9301578,6.78599399 L66.9301578,6.78599399 Z M79.7732155,35.6112613 L74.3306707,55.9256019 L54.0163302,61.3681466 L39.1462195,46.4980359 L44.5904492,26.1853804 L64.9047898,20.7411506 L79.7732155,35.6112613 Z M50.4424486,64.9437132 L44.9999038,85.2563687 L24.6872483,90.6989135 L9.81713759,75.8288028 L15.2613674,55.5161473 L35.5740229,50.0752875 L50.4424486,64.9437132 Z M8.51294884,47.8258146 C8.51294884,48.7795237 7.73616458,49.554623 6.7824555,49.554623 C5.82706141,49.554623 5.05196216,48.7795237 5.05196216,47.8258146 C5.05196216,46.8721055 5.82706141,46.0953213 6.7824555,46.0953213 C7.73616458,46.0953213 8.51294884,46.8721055 8.51294884,47.8258146 L8.51294884,47.8258146 Z M79.212111,57.2348456 L85.0320955,35.5118464 C85.2663102,34.6423873 85.0152455,33.7055282 84.3783161,33.0685988 L68.4955213,17.184119 L69.4761904,13.5074525 C72.8192272,13.0996829 75.4444546,10.2082257 75.4444546,6.78599399 C75.4444546,3.04361258 72.3996626,0.000505499515 68.6589662,0.000505499515 C64.9199547,0.000505499515 61.8751627,3.04361258 61.8751627,6.78599399 C61.8751627,8.93436693 62.8827917,10.912555 64.596435,12.1948388 L63.620821,15.8512853 L41.8742318,21.6780097 C41.0064577,21.9105395 40.3206633,22.5946488 40.0864486,23.465793 L34.2664641,45.1904772 L13.3522642,50.7930968 L13.0135795,50.4560971 C13.3842792,49.6034879 13.571314,48.7205488 13.571314,47.8258146 C13.571314,44.0834332 10.5265219,41.0403261 6.78582549,41.0403261 C3.04344408,41.0403261 0.000336999677,44.0834332 0.000336999677,47.8258146 C0.000336999677,51.566511 3.04344408,54.6096181 6.78582549,54.6096181 C7.69403962,54.6096181 8.58877376,54.4175283 9.44980794,54.0384037 L10.2198522,54.8084479 L4.55657263,75.9282177 C4.32235785,76.7976768 4.57342261,77.732851 5.210352,78.3697803 L22.1445858,95.3056991 C22.6147003,95.7758136 23.2651097,96.0454134 23.932369,96.0454134 C24.1463638,96.0454134 24.3654136,96.0184534 24.5861484,95.9594785 L47.7211762,89.7603694 C48.5889504,89.5261546 49.2730597,88.8437303 49.5072745,87.9725861 L55.3255739,66.251272 L75.6382295,60.8070422 L84.4019061,69.5707188 L87.9757876,65.9968372 L79.212111,57.2348456 Z" id="Fill-2" fill="#FFFFFF"></path>
                                <path d="M66.0580026,48.1820233 L70.939443,49.491267 L74.1443099,37.5244085 C74.3768397,36.6549493 74.1274599,35.7197752 73.4905305,35.0828459 L68.6646951,30.2553255 L65.0908136,33.8292071 L68.8854299,37.6255084 L66.0580026,48.1820233 Z" id="Fill-5" fill="#FFFFFF"></path>
                            </g>
                        </g>
                    </g>
                </g>
            </g>
        </g>
    </g>
</svg>