<?xml version="1.0" encoding="UTF-8"?>
<svg width="102px" height="74px" viewBox="0 0 102 74" version="1.1" xmlns="http://www.w3.org/2000/svg" xmlns:xlink="http://www.w3.org/1999/xlink">
    <!-- Generator: Sketch 41.2 (35397) - http://www.bohemiancoding.com/sketch -->
    <title>HandShake</title>
    <desc>Created with Sketch.</desc>
    <defs></defs>
    <g id="Page-1" stroke="none" stroke-width="1" fill="none" fill-rule="evenodd">
        <g id="Desktop-1" transform="translate(-687.000000, -549.000000)" fill="#FFFFFF">
            <g id="Group-5" transform="translate(648.000000, 148.779091)">
                <g id="Group" transform="translate(0.296093, 0.485896)">
                    <g id="Culture" transform="translate(3.658868, 365.886779)">
                        <g id="HandShake" transform="translate(35.000000, 34.000000)">
                            <path d="M52.9898606,64.5802422 C51.0678668,62.6582484 52.4569674,59.2513098 55.1917193,59.2513098 C56.0159786,59.2513098 56.8146795,59.5810135 57.3948558,60.1650236 L60.3315193,63.0978533 C63.1340011,65.9527299 58.7392292,70.3360004 55.9022436,67.495181 C55.9022436,67.495181 52.9936944,64.5853539 52.9898606,64.5802422 M59.9660338,56.1945217 C57.1188248,53.3473127 61.5314876,48.9346499 64.3774186,51.7818589 C64.3812524,51.7882485 70.3286988,57.7356949 70.3299767,57.7382508 C72.2583602,59.6589667 70.8475349,63.0633495 68.1255622,63.0633495 L68.1242843,63.0633495 C67.2923575,63.0633495 66.5089916,62.7400353 65.9160361,62.1483577 C65.9147581,62.1445239 59.9711455,56.1996334 59.9660338,56.1945217 M79.0722374,55.5300025 C77.8543782,56.7453058 75.8748779,56.7478617 74.6595746,55.5300025 L65.9939893,46.8644172 C63.1442244,44.0159303 67.5581651,39.6058234 70.406652,42.4517544 C70.4117637,42.4568661 79.0722374,51.1147839 79.0722374,51.1147839 C80.2900965,52.3326431 80.2900965,54.3121434 79.0722374,55.5300025 M86.0036833,47.0969989 C84.8279956,48.2739645 82.7743758,48.2765204 81.5961322,47.1033885 L73.302422,38.8096783 C70.455213,35.9611914 74.86532,31.5485286 77.7150848,34.3957376 L86.0011275,42.6830582 C87.2189866,43.8996394 87.2189866,45.8829735 86.0036833,47.0969989 M3.23015527,48.3110243 L12.0120315,48.3110243 C13.0484258,50.4055375 14.9052456,51.8892043 17.1863354,52.4118742 C15.4470843,58.3260947 21.2373464,63.9630062 27.1030058,61.8863838 C28.2211871,66.2249271 32.9354393,68.7117623 37.1487463,67.2421526 C38.5991872,72.9378485 45.939568,74.9071254 50.0825893,70.7589924 L51.3579549,69.4836268 L52.6333205,70.7589924 C54.0952627,72.2209346 56.0402591,73.0298588 58.1066581,73.0298588 C61.590272,73.0298588 64.7173457,70.6235327 65.5722752,67.2421526 C70.1318989,68.8421102 75.1669094,65.7572079 75.7930909,60.9573349 C80.6926418,61.6435787 84.9966812,57.5286717 84.5340736,52.5958949 C87.2087632,52.3467002 89.5205231,50.7084049 90.7038784,48.3097463 L99.8014012,48.3097463 C102.781514,48.3097463 102.781514,43.6887824 99.8014012,43.6887824 L91.4169585,43.6887824 C91.1754314,42.1246065 90.4725746,40.620493 89.2687726,39.4141351 L80.981452,31.1255366 C76.0972362,26.2413209 67.4840457,30.0086333 67.8239728,36.9426351 C63.0483803,37.1573259 59.6082158,41.7642327 60.6829477,46.4043655 C56.8197912,47.1430041 54.1514912,50.7607997 54.5105871,54.6622939 C49.0883664,55.132569 45.8680044,61.1247426 48.3816759,65.9258935 L46.8136662,67.4900694 C43.970291,70.3347225 39.5601841,65.9399506 42.393336,63.086352 L54.3917404,51.0866697 C56.497755,48.981933 53.2301098,45.7104541 51.1240953,47.8203024 L36.7985959,62.1483577 L36.79604,62.1483577 C36.2069182,62.7400353 35.4235524,63.0633495 34.5890697,63.0633495 C31.8555957,63.0659053 30.4652172,59.655133 32.3897669,57.7305833 L46.7114325,43.4089176 C48.8174471,41.302903 45.548524,38.0327021 43.4437874,40.1412724 L26.7784138,56.807924 C23.9299269,59.6564109 19.5223758,55.2360806 22.3708627,52.3875937 L39.0311246,35.7273318 C41.1371392,33.6213172 37.869494,30.3498383 35.7634795,32.4596866 L21.1197776,47.1033885 C18.2712907,49.941652 13.8688513,45.5289893 16.7147824,42.6830582 L39.4375037,19.959059 L51.1407083,19.959059 C55.374462,23.9423402 61.3845266,27.3058294 67.3933132,26.059856 C70.0309431,25.5116277 72.6021211,23.9717324 73.7215803,21.4286687 C74.929216,18.6836934 73.9464944,15.680578 71.8992643,13.6333479 L63.08544,4.82080155 L70.3695923,4.82080155 C71.6487917,4.82080155 72.9893313,6.15750738 73.8838763,6.92426025 C75.3062029,8.14467524 76.6365191,9.46987978 78.0217859,10.7324662 C80.5507925,13.0416702 83.6075806,15.6614092 87.2343216,15.6614092 L99.8014012,15.6614092 C102.781514,15.6614092 102.781514,11.0404452 99.8014012,11.0404452 L87.2343216,11.0404452 C85.748099,11.0404452 84.3308841,9.96826914 83.2165366,9.09672671 C81.8005997,7.98876882 80.5009535,6.73257204 79.192362,5.5032116 C76.816706,3.27068283 73.8902659,0.198559673 70.3695923,0.198559673 L54.4530807,0.198559673 C54.4492469,0.198559673 54.4454131,0.199837594 54.4403015,0.199837594 L32.6632421,0.199837594 C29.1412905,0.199837594 26.2161284,3.27196076 23.8391945,5.5032116 C22.4283692,6.82969407 21.032879,8.18940249 19.4802044,9.35358893 C18.4438101,10.1305652 17.1543874,11.0404452 15.7972348,11.0404452 L3.23015527,11.0404452 C0.253876216,11.0404452 0.253876216,15.6614092 3.23015527,15.6614092 L15.7972348,15.6614092 C19.4252538,15.6614092 22.479486,13.0403923 25.0097705,10.7324662 C26.3950374,9.46987978 27.7253536,8.14467524 29.1489581,6.92426025 C30.0409472,6.15750738 31.3853206,4.82080155 32.6632421,4.82080155 L54.4530807,4.82080155 C56.2025551,4.82080155 56.9961443,5.26424029 57.7105024,5.97859838 L68.6316191,16.8997151 C70.6660701,18.9290543 69.0149956,20.9328352 66.6840668,21.4823414 C65.7154024,21.7098114 64.696899,21.7225906 63.7141774,21.6088556 C61.8292433,21.3890531 60.0299299,20.6772509 58.4018579,19.7226436 C57.2312819,19.0363997 56.139937,18.2198079 55.1175998,17.3290967 C54.2141094,16.5406191 53.3949617,15.3355392 52.0787026,15.3355392 L38.4803405,15.3355392 C37.8669382,15.3355392 37.2816502,15.5783443 36.8471569,16.0128376 L13.4471372,39.4154131 C12.2446132,40.620493 11.5430343,42.1258845 11.2963954,43.6913382 L3.23015527,43.6913382 C0.253876216,43.6913382 0.253876216,48.3110243 3.23015527,48.3110243" id="Fill-1"></path>
                        </g>
                    </g>
                </g>
            </g>
        </g>
    </g>
</svg>